<?xml version="1.0" encoding="UTF-8" standalone="no"?>
<svg
   width="16"
   height="16"
   viewBox="0 0 16 16"
   fill="none"
   version="1.1"
   id="svg6"
   sodipodi:docname="checkbox_Default_big.svg"
   inkscape:version="1.1.1 (3bf5ae0d25, 2021-09-20)"
   xmlns:inkscape="http://www.inkscape.org/namespaces/inkscape"
   xmlns:sodipodi="http://sodipodi.sourceforge.net/DTD/sodipodi-0.dtd"
   xmlns="http://www.w3.org/2000/svg"
   xmlns:svg="http://www.w3.org/2000/svg">
  <defs
     id="defs10" />
  <sodipodi:namedview
     id="namedview8"
     pagecolor="#ffffff"
     bordercolor="#666666"
     borderopacity="1.0"
     inkscape:pageshadow="2"
     inkscape:pageopacity="0.0"
     inkscape:pagecheckerboard="0"
     showgrid="false"
     inkscape:zoom="44.9375"
     inkscape:cx="8"
     inkscape:cy="8"
     inkscape:window-width="1920"
     inkscape:window-height="1057"
     inkscape:window-x="-8"
     inkscape:window-y="-8"
     inkscape:window-maximized="1"
     inkscape:current-layer="svg6" />
  <path
     d="m 12.643999,1.6930165 c 0.233256,-0.2792206 0.543555,-0.4336021 0.865489,-0.4305474 0.321932,0.00308 0.630385,0.163333 0.860095,0.4469813 0.229851,0.2836287 0.363079,0.6684709 0.371593,1.0733043 0.0085,0.4048138 -0.108401,0.7979694 -0.325905,1.0964856 L 7.8105767,14.268952 C 7.6970134,14.422849 7.5599401,14.546392 7.4075717,14.632043 7.255189,14.717692 7.0906472,14.763901 6.9237499,14.767767 6.7568668,14.771633 6.591062,14.733154 6.4362675,14.654663 6.281487,14.576167 6.1408667,14.459197 6.022848,14.310711 L 1.6429127,8.8013709 C 1.5209358,8.6583965 1.4231072,8.485996 1.3552587,8.2944544 1.2873959,8.1028939 1.2509178,7.8961174 1.2479808,7.6864407 1.2450294,7.4767643 1.2756904,7.2684991 1.3381334,7.0740576 1.4005761,6.8795968 1.4935095,6.702962 1.6114005,6.55469 1.7292911,6.4063987 1.869713,6.2895057 2.0242946,6.2109519 2.1788908,6.1324172 2.3444686,6.0938462 2.5111672,6.097539 2.6778516,6.1012547 2.8422516,6.1471504 2.9945349,6.23249 3.1468183,6.317849 3.2838773,6.4408905 3.3975401,6.5943247 L 6.8637474,10.952194 12.612642,1.7388379 c 0.01032,-0.016048 0.02141,-0.03134 0.03305,-0.045821 z"
     fill="#f4f4fd"
     id="path2"
     style="stroke-width:1.65625" />
  <rect
     x="0.625"
     y="0.625"
     width="14.75"
     height="14.75"
     rx="1.375"
     stroke="#2E2F42"
     stroke-width="1.25"
     id="rect4" />
</svg>
